<svg width="1361" height="1210" viewBox="0 0 1361 1210" fill="none" xmlns="http://www.w3.org/2000/svg">
<path d="M227 403.333V1058.75C227 1085.49 237.623 1111.14 256.533 1130.05C275.443 1148.96 301.091 1159.58 327.833 1159.58H1033.67C1060.41 1159.58 1086.06 1148.96 1104.97 1130.05C1123.88 1111.14 1134.5 1085.49 1134.5 1058.75V403.333H227Z" fill="#1872F2"/>
<path d="M227 352.917V1008.33C227 1063.79 272.123 1109.17 327.833 1109.17H1033.67C1089.38 1109.17 1134.5 1063.79 1134.5 1008.33V352.917H227Z" fill="#ECF0F1"/>
<path d="M227 302.5V957.917C227 1013.38 272.123 1058.75 327.833 1058.75H1033.67C1089.38 1058.75 1134.5 1013.38 1134.5 957.917V302.5H227Z" fill="#BDC3C7"/>
<path d="M227 252.083V907.5C227 962.958 272.123 1008.33 327.833 1008.33H1033.67C1089.38 1008.33 1134.5 962.958 1134.5 907.5V252.083H227Z" fill="#ECF0F1"/>
<path d="M327.833 50.4166C301.091 50.4166 275.443 61.0401 256.533 79.95C237.623 98.8599 227 124.507 227 151.25V1058.75C227 1085.49 237.623 1111.14 256.533 1130.05C275.443 1148.96 301.091 1159.58 327.833 1159.58H428.667V1109.17H353.042C332.985 1109.17 313.749 1101.2 299.567 1087.02C285.384 1072.83 277.417 1053.6 277.417 1033.54C277.417 1013.48 285.384 994.249 299.567 980.067C313.749 965.884 332.985 957.917 353.042 957.917H1033.67C1060.41 957.917 1086.06 947.293 1104.97 928.383C1123.88 909.473 1134.5 883.826 1134.5 857.083V151.25C1134.5 124.507 1123.88 98.8599 1104.97 79.95C1086.06 61.0401 1060.41 50.4166 1033.67 50.4166H327.833Z" fill="#1872F2"/>
<path d="M479.083 50.4166V957.917H1033.67C1060.41 957.917 1086.06 947.293 1104.97 928.383C1123.88 909.473 1134.5 883.826 1134.5 857.083V151.25C1134.5 124.507 1123.88 98.8599 1104.97 79.95C1086.06 61.0401 1060.41 50.4166 1033.67 50.4166H479.083Z" fill="#5193FC"/>
</svg>
