<svg width="395" height="374" viewBox="0 0 395 374" fill="none" xmlns="http://www.w3.org/2000/svg">
<g filter="url(#filter0_d_2_36)">
<rect x="30" y="15" width="335" height="314" rx="99.1041" fill="white"/>
</g>
<path d="M136.177 104.45V112.82H119.527V167H109.267V112.82H92.5265V104.45H136.177ZM192.017 140.99C192.017 142.85 191.897 144.53 191.657 146.03H153.767C154.067 149.99 155.537 153.17 158.177 155.57C160.817 157.97 164.057 159.17 167.897 159.17C173.417 159.17 177.317 156.86 179.597 152.24H190.667C189.167 156.8 186.437 160.55 182.477 163.49C178.577 166.37 173.717 167.81 167.897 167.81C163.157 167.81 158.897 166.76 155.117 164.66C151.397 162.5 148.457 159.5 146.297 155.66C144.197 151.76 143.147 147.26 143.147 142.16C143.147 137.06 144.167 132.59 146.207 128.75C148.307 124.85 151.217 121.85 154.937 119.75C158.717 117.65 163.037 116.6 167.897 116.6C172.577 116.6 176.747 117.62 180.407 119.66C184.067 121.7 186.917 124.58 188.957 128.3C190.997 131.96 192.017 136.19 192.017 140.99ZM181.307 137.75C181.247 133.97 179.897 130.94 177.257 128.66C174.617 126.38 171.347 125.24 167.447 125.24C163.907 125.24 160.877 126.38 158.357 128.66C155.837 130.88 154.337 133.91 153.857 137.75H181.307ZM198.694 142.16C198.694 137.06 199.714 132.59 201.754 128.75C203.854 124.85 206.734 121.85 210.394 119.75C214.054 117.65 218.254 116.6 222.994 116.6C228.994 116.6 233.944 118.04 237.844 120.92C241.804 123.74 244.474 127.79 245.854 133.07H234.784C233.884 130.61 232.444 128.69 230.464 127.31C228.484 125.93 225.994 125.24 222.994 125.24C218.794 125.24 215.434 126.74 212.914 129.74C210.454 132.68 209.224 136.82 209.224 142.16C209.224 147.5 210.454 151.67 212.914 154.67C215.434 157.67 218.794 159.17 222.994 159.17C228.934 159.17 232.864 156.56 234.784 151.34H245.854C244.414 156.38 241.714 160.4 237.754 163.4C233.794 166.34 228.874 167.81 222.994 167.81C218.254 167.81 214.054 166.76 210.394 164.66C206.734 162.5 203.854 159.5 201.754 155.66C199.714 151.76 198.694 147.26 198.694 142.16ZM281.729 116.6C285.509 116.6 288.869 117.41 291.809 119.03C294.809 120.65 297.149 123.05 298.829 126.23C300.569 129.41 301.439 133.25 301.439 137.75V167H291.269V139.28C291.269 134.84 290.159 131.45 287.939 129.11C285.719 126.71 282.689 125.51 278.849 125.51C275.009 125.51 271.949 126.71 269.669 129.11C267.449 131.45 266.339 134.84 266.339 139.28V167H256.079V100.4H266.339V123.17C268.079 121.07 270.269 119.45 272.909 118.31C275.609 117.17 278.549 116.6 281.729 116.6Z" fill="#FA7219"/>
<path d="M110.18 241.63C105.98 241.63 102.2 240.91 98.8403 239.47C95.4803 237.97 92.8403 235.87 90.9203 233.17C89.0003 230.47 88.0403 227.32 88.0403 223.72H99.0203C99.2603 226.42 100.31 228.64 102.17 230.38C104.09 232.12 106.76 232.99 110.18 232.99C113.72 232.99 116.48 232.15 118.46 230.47C120.44 228.73 121.43 226.51 121.43 223.81C121.43 221.71 120.8 220 119.54 218.68C118.34 217.36 116.81 216.34 114.95 215.62C113.15 214.9 110.63 214.12 107.39 213.28C103.31 212.2 99.9803 211.12 97.4003 210.04C94.8803 208.9 92.7203 207.16 90.9203 204.82C89.1203 202.48 88.2203 199.36 88.2203 195.46C88.2203 191.86 89.1203 188.71 90.9203 186.01C92.7203 183.31 95.2403 181.24 98.4803 179.8C101.72 178.36 105.47 177.64 109.73 177.64C115.79 177.64 120.74 179.17 124.58 182.23C128.48 185.23 130.64 189.37 131.06 194.65H119.72C119.54 192.37 118.46 190.42 116.48 188.8C114.5 187.18 111.89 186.37 108.65 186.37C105.71 186.37 103.31 187.12 101.45 188.62C99.5903 190.12 98.6603 192.28 98.6603 195.1C98.6603 197.02 99.2303 198.61 100.37 199.87C101.57 201.07 103.07 202.03 104.87 202.75C106.67 203.47 109.13 204.25 112.25 205.09C116.39 206.23 119.75 207.37 122.33 208.51C124.97 209.65 127.19 211.42 128.99 213.82C130.85 216.16 131.78 219.31 131.78 223.27C131.78 226.45 130.91 229.45 129.17 232.27C127.49 235.09 125 237.37 121.7 239.11C118.46 240.79 114.62 241.63 110.18 241.63ZM169.537 190.6C173.317 190.6 176.677 191.41 179.617 193.03C182.617 194.65 184.957 197.05 186.637 200.23C188.377 203.41 189.247 207.25 189.247 211.75V241H179.077V213.28C179.077 208.84 177.967 205.45 175.747 203.11C173.527 200.71 170.497 199.51 166.657 199.51C162.817 199.51 159.757 200.71 157.477 203.11C155.257 205.45 154.147 208.84 154.147 213.28V241H143.887V174.4H154.147V197.17C155.887 195.07 158.077 193.45 160.717 192.31C163.417 191.17 166.357 190.6 169.537 190.6ZM223.844 241.81C219.164 241.81 214.934 240.76 211.154 238.66C207.374 236.5 204.404 233.5 202.244 229.66C200.084 225.76 199.004 221.26 199.004 216.16C199.004 211.12 200.114 206.65 202.334 202.75C204.554 198.85 207.584 195.85 211.424 193.75C215.264 191.65 219.554 190.6 224.294 190.6C229.034 190.6 233.324 191.65 237.164 193.75C241.004 195.85 244.034 198.85 246.254 202.75C248.474 206.65 249.584 211.12 249.584 216.16C249.584 221.2 248.444 225.67 246.164 229.57C243.884 233.47 240.764 236.5 236.804 238.66C232.904 240.76 228.584 241.81 223.844 241.81ZM223.844 232.9C226.484 232.9 228.944 232.27 231.224 231.01C233.564 229.75 235.454 227.86 236.894 225.34C238.334 222.82 239.054 219.76 239.054 216.16C239.054 212.56 238.364 209.53 236.984 207.07C235.604 204.55 233.774 202.66 231.494 201.4C229.214 200.14 226.754 199.51 224.114 199.51C221.474 199.51 219.014 200.14 216.734 201.4C214.514 202.66 212.744 204.55 211.424 207.07C210.104 209.53 209.444 212.56 209.444 216.16C209.444 221.5 210.794 225.64 213.494 228.58C216.254 231.46 219.704 232.9 223.844 232.9ZM269.987 198.7C271.727 196.42 274.097 194.5 277.097 192.94C280.097 191.38 283.487 190.6 287.267 190.6C291.587 190.6 295.517 191.68 299.057 193.84C302.657 195.94 305.477 198.91 307.517 202.75C309.557 206.59 310.577 211 310.577 215.98C310.577 220.96 309.557 225.43 307.517 229.39C305.477 233.29 302.657 236.35 299.057 238.57C295.517 240.73 291.587 241.81 287.267 241.81C283.487 241.81 280.127 241.06 277.187 239.56C274.247 238 271.847 236.08 269.987 233.8V264.58H259.727V191.41H269.987V198.7ZM300.137 215.98C300.137 212.56 299.417 209.62 297.977 207.16C296.597 204.64 294.737 202.75 292.397 201.49C290.117 200.17 287.657 199.51 285.017 199.51C282.437 199.51 279.977 200.17 277.637 201.49C275.357 202.81 273.497 204.73 272.057 207.25C270.677 209.77 269.987 212.74 269.987 216.16C269.987 219.58 270.677 222.58 272.057 225.16C273.497 227.68 275.357 229.6 277.637 230.92C279.977 232.24 282.437 232.9 285.017 232.9C287.657 232.9 290.117 232.24 292.397 230.92C294.737 229.54 296.597 227.56 297.977 224.98C299.417 222.4 300.137 219.4 300.137 215.98Z" fill="#575758"/>
<defs>
<filter id="filter0_d_2_36" x="0" y="0" width="395" height="374" filterUnits="userSpaceOnUse" color-interpolation-filters="sRGB">
<feFlood flood-opacity="0" result="BackgroundImageFix"/>
<feColorMatrix in="SourceAlpha" type="matrix" values="0 0 0 0 0 0 0 0 0 0 0 0 0 0 0 0 0 0 127 0" result="hardAlpha"/>
<feOffset dy="15"/>
<feGaussianBlur stdDeviation="15"/>
<feComposite in2="hardAlpha" operator="out"/>
<feColorMatrix type="matrix" values="0 0 0 0 0 0 0 0 0 0 0 0 0 0 0 0 0 0 0.1 0"/>
<feBlend mode="normal" in2="BackgroundImageFix" result="effect1_dropShadow_2_36"/>
<feBlend mode="normal" in="SourceGraphic" in2="effect1_dropShadow_2_36" result="shape"/>
</filter>
</defs>
</svg>
